{
    "asset" : {
        "generator" : "Khronos glTF Blender I/O v1.5.17",
        "version" : "2.0"
    },
    "scene" : 0,
    "scenes" : [
        {
            "name" : "Scene",
            "nodes" : [
                0
            ]
        }
    ],
    "nodes" : [
        {
            "mesh" : 0,
            "name" : "Vert.009",
            "rotation" : [
                0,
                -0.8661693930625916,
                0,
                0.4997505247592926
            ],
            "scale" : [
                0.3455808460712433,
                0.3455808460712433,
                0.3455808460712433
            ],
            "translation" : [
                0.026499390602111816,
                0.01218143105506897,
                0.08869173377752304
            ]
        }
    ],
    "materials" : [
        {
            "doubleSided" : true,
            "name" : "Material.011",
            "pbrMetallicRoughness" : {
                "baseColorFactor" : [
                    0.36565080285072327,
                    0.8000000715255737,
                    0.08006290346384048,
                    1
                ],
                "metallicFactor" : 0,
                "roughnessFactor" : 0.16153845191001892
            }
        }
    ],
    "meshes" : [
        {
            "name" : "Vert.009",
            "primitives" : [
                {
                    "attributes" : {
                        "POSITION" : 0,
                        "NORMAL" : 1
                    },
                    "indices" : 2,
                    "material" : 0
                }
            ]
        }
    ],
    "accessors" : [
        {
            "bufferView" : 0,
            "componentType" : 5126,
            "count" : 1880,
            "max" : [
                1.4961180686950684,
                6.94671106338501,
                2.7150349617004395
            ],
            "min" : [
                -2.276550531387329,
                0.002677740529179573,
                -1.8809304237365723
            ],
            "type" : "VEC3"
        },
        {
            "bufferView" : 1,
            "componentType" : 5126,
            "count" : 1880,
            "type" : "VEC3"
        },
        {
            "bufferView" : 2,
            "componentType" : 5123,
            "count" : 2820,
            "type" : "SCALAR"
        }
    ],
    "bufferViews" : [
        {
            "buffer" : 0,
            "byteLength" : 22560,
            "byteOffset" : 0
        },
        {
            "buffer" : 0,
            "byteLength" : 22560,
            "byteOffset" : 22560
        },
        {
            "buffer" : 0,
            "byteLength" : 5640,
            "byteOffset" : 45120
        }
    ],
    "buffers" : [
        {
            "byteLength" : 50760,
            "uri" : "cactus.bin"
        }
    ]
}
