{
    "asset" : {
        "generator" : "Khronos glTF Blender I/O v1.5.17",
        "version" : "2.0"
    },
    "scene" : 0,
    "scenes" : [
        {
            "name" : "Scene",
            "nodes" : [
                0
            ]
        }
    ],
    "nodes" : [
        {
            "mesh" : 0,
            "name" : "Plane.018",
            "rotation" : [
                0,
                -0.7074838280677795,
                0,
                0.706729531288147
            ],
            "scale" : [
                2.244521141052246,
                2.244521141052246,
                9.008285522460938
            ],
            "translation" : [
                0.289764404296875,
                0,
                -0.19139671325683594
            ]
        }
    ],
    "materials" : [
        {
            "doubleSided" : true,
            "name" : "Material.002",
            "pbrMetallicRoughness" : {
                "baseColorFactor" : [
                    0.04323237016797066,
                    0.04323237016797066,
                    0.04323237016797066,
                    1
                ],
                "metallicFactor" : 0,
                "roughnessFactor" : 0.5
            }
        }
    ],
    "meshes" : [
        {
            "name" : "Plane.029",
            "primitives" : [
                {
                    "attributes" : {
                        "POSITION" : 0,
                        "NORMAL" : 1,
                        "TEXCOORD_0" : 2
                    },
                    "indices" : 3,
                    "material" : 0
                }
            ]
        }
    ],
    "accessors" : [
        {
            "bufferView" : 0,
            "componentType" : 5126,
            "count" : 9,
            "max" : [
                0.9166667461395264,
                0,
                0.9166667461395264
            ],
            "min" : [
                -0.9166667461395264,
                0,
                -0.9166667461395264
            ],
            "type" : "VEC3"
        },
        {
            "bufferView" : 1,
            "componentType" : 5126,
            "count" : 9,
            "type" : "VEC3"
        },
        {
            "bufferView" : 2,
            "componentType" : 5126,
            "count" : 9,
            "type" : "VEC2"
        },
        {
            "bufferView" : 3,
            "componentType" : 5123,
            "count" : 24,
            "type" : "SCALAR"
        }
    ],
    "bufferViews" : [
        {
            "buffer" : 0,
            "byteLength" : 108,
            "byteOffset" : 0
        },
        {
            "buffer" : 0,
            "byteLength" : 108,
            "byteOffset" : 108
        },
        {
            "buffer" : 0,
            "byteLength" : 72,
            "byteOffset" : 216
        },
        {
            "buffer" : 0,
            "byteLength" : 48,
            "byteOffset" : 288
        }
    ],
    "buffers" : [
        {
            "byteLength" : 336,
            "uri" : "pisorecto.bin"
        }
    ]
}
