{
    "asset" : {
        "generator" : "Khronos glTF Blender I/O v1.0.5",
        "version" : "2.0"
    },
    "scene" : 0,
    "scenes" : [
        {
            "name" : "Scene",
            "nodes" : [
                0
            ]
        }
    ],
    "nodes" : [
        {
            "mesh" : 0,
            "name" : "pista_prueba",
            "scale" : [
                18.22089958190918,
                12.137929916381836,
                18.22089958190918
            ]
        }
    ],
    "materials" : [
        {
            "doubleSided" : true,
            "name" : "asfalto",
            "pbrMetallicRoughness" : {
                "baseColorTexture" : {
                    "index" : 0,
                    "texCoord" : 0
                },
                "metallicFactor" : 0,
                "roughnessFactor" : 0.5
            }
        }
    ],
    "meshes" : [
        {
            "name" : "Sphere.003",
            "primitives" : [
                {
                    "attributes" : {
                        "POSITION" : 0,
                        "NORMAL" : 1,
                        "TEXCOORD_0" : 2
                    },
                    "indices" : 3,
                    "material" : 0
                }
            ]
        }
    ],
    "textures" : [
        {
            "source" : 0
        }
    ],
    "images" : [
        {
            "bufferView" : 4,
            "mimeType" : "image/jpeg",
            "name" : "asphalt-2"
        }
    ],
    "accessors" : [
        {
            "bufferView" : 0,
            "componentType" : 5126,
            "count" : 4532,
            "max" : [
                1.000000238418579,
                0.41735538840293884,
                2.738739252090454
            ],
            "min" : [
                -1.000000238418579,
                -0.5983239412307739,
                -2.7387402057647705
            ],
            "type" : "VEC3"
        },
        {
            "bufferView" : 1,
            "componentType" : 5126,
            "count" : 4532,
            "type" : "VEC3"
        },
        {
            "bufferView" : 2,
            "componentType" : 5126,
            "count" : 4532,
            "type" : "VEC2"
        },
        {
            "bufferView" : 3,
            "componentType" : 5123,
            "count" : 6612,
            "type" : "SCALAR"
        }
    ],
    "bufferViews" : [
        {
            "buffer" : 0,
            "byteLength" : 54384,
            "byteOffset" : 0
        },
        {
            "buffer" : 0,
            "byteLength" : 54384,
            "byteOffset" : 54384
        },
        {
            "buffer" : 0,
            "byteLength" : 36256,
            "byteOffset" : 108768
        },
        {
            "buffer" : 0,
            "byteLength" : 13224,
            "byteOffset" : 145024
        },
        {
            "buffer" : 0,
            "byteLength" : 1243474,
            "byteOffset" : 158248
        }
    ],
    "buffers" : [
        {
            "byteLength" : 1401724,
            "uri" : "data:application/octet-stream;base64,"
        }
    ]
}
