{
    "asset" : {
        "generator" : "Khronos glTF Blender I/O v1.0.5",
        "version" : "2.0"
    },
    "scene" : 0,
    "scenes" : [
        {
            "name" : "Scene",
            "nodes" : [
                0
            ]
        }
    ],
    "nodes" : [
        {
            "mesh" : 0,
            "name" : "pista_grande",
            "scale" : [
                9.61075210571289,
                9.61075210571289,
                9.61075210571289
            ]
        }
    ],
    "materials" : [
        {
            "doubleSided" : true,
            "name" : "materialmorado",
            "pbrMetallicRoughness" : {
                "baseColorFactor" : [
                    0.23733043670654297,
                    0.009460384957492352,
                    0.8000000715255737,
                    1
                ],
                "metallicFactor" : 0,
                "roughnessFactor" : 0.5
            }
        }
    ],
    "meshes" : [
        {
            "name" : "BezierCurve.005",
            "primitives" : [
                {
                    "attributes" : {
                        "POSITION" : 0,
                        "NORMAL" : 1
                    },
                    "indices" : 2,
                    "material" : 0
                }
            ]
        }
    ],
    "accessors" : [
        {
            "bufferView" : 0,
            "componentType" : 5126,
            "count" : 2400,
            "max" : [
                22.774429321289062,
                5.314541816711426,
                26.45713233947754
            ],
            "min" : [
                -79.29141235351562,
                -5.942410945892334,
                -39.60449981689453
            ],
            "type" : "VEC3"
        },
        {
            "bufferView" : 1,
            "componentType" : 5126,
            "count" : 2400,
            "type" : "VEC3"
        },
        {
            "bufferView" : 2,
            "componentType" : 5123,
            "count" : 14400,
            "type" : "SCALAR"
        }
    ],
    "bufferViews" : [
        {
            "buffer" : 0,
            "byteLength" : 28800,
            "byteOffset" : 0
        },
        {
            "buffer" : 0,
            "byteLength" : 28800,
            "byteOffset" : 28800
        },
        {
            "buffer" : 0,
            "byteLength" : 28800,
            "byteOffset" : 57600
        }
    ],
    "buffers" : [
        {
            "byteLength" : 86400,
            "uri" : "data:application/octet-stream;base64,"
        }
    ]
}
