{
    "asset" : {
        "generator" : "Khronos glTF Blender I/O v1.0.5",
        "version" : "2.0"
    },
    "scene" : 0,
    "scenes" : [
        {
            "name" : "Scene",
            "nodes" : [
                0,
                1
            ]
        }
    ],
    "nodes" : [
        {
            "mesh" : 0,
            "name" : "pista_completa-collision",
            "scale" : [
                14.405111312866211,
                14.405111312866211,
                14.405111312866211
            ]
        },
        {
            "mesh" : 1,
            "name" : "pista_completa",
            "scale" : [
                14.405111312866211,
                14.405111312866211,
                14.405111312866211
            ]
        }
    ],
    "materials" : [
        {
            "doubleSided" : true,
            "name" : "Material.001",
            "pbrMetallicRoughness" : {
                "baseColorFactor" : [
                    0.8000000715255737,
                    0.09303227812051773,
                    0.11398729681968689,
                    1
                ],
                "metallicFactor" : 0.5499999523162842,
                "roughnessFactor" : 0.4583333432674408
            }
        }
    ],
    "meshes" : [
        {
            "name" : "BezierCurve.002",
            "primitives" : [
                {
                    "attributes" : {
                        "POSITION" : 0,
                        "NORMAL" : 1
                    },
                    "indices" : 2
                }
            ]
        },
        {
            "name" : "BezierCurve.003",
            "primitives" : [
                {
                    "attributes" : {
                        "POSITION" : 3,
                        "NORMAL" : 4
                    },
                    "indices" : 5,
                    "material" : 0
                }
            ]
        }
    ],
    "accessors" : [
        {
            "bufferView" : 0,
            "componentType" : 5126,
            "count" : 960,
            "max" : [
                8.374310493469238,
                1.695633053779602,
                6.502651214599609
            ],
            "min" : [
                -5.092958450317383,
                -0.3640103340148926,
                -5.778164863586426
            ],
            "type" : "VEC3"
        },
        {
            "bufferView" : 1,
            "componentType" : 5126,
            "count" : 960,
            "type" : "VEC3"
        },
        {
            "bufferView" : 2,
            "componentType" : 5123,
            "count" : 5760,
            "type" : "SCALAR"
        },
        {
            "bufferView" : 3,
            "componentType" : 5126,
            "count" : 2400,
            "max" : [
                8.374310493469238,
                1.695633053779602,
                6.502651214599609
            ],
            "min" : [
                -5.092958450317383,
                -0.3640103340148926,
                -5.778164863586426
            ],
            "type" : "VEC3"
        },
        {
            "bufferView" : 4,
            "componentType" : 5126,
            "count" : 2400,
            "type" : "VEC3"
        },
        {
            "bufferView" : 5,
            "componentType" : 5123,
            "count" : 14400,
            "type" : "SCALAR"
        }
    ],
    "bufferViews" : [
        {
            "buffer" : 0,
            "byteLength" : 11520,
            "byteOffset" : 0
        },
        {
            "buffer" : 0,
            "byteLength" : 11520,
            "byteOffset" : 11520
        },
        {
            "buffer" : 0,
            "byteLength" : 11520,
            "byteOffset" : 23040
        },
        {
            "buffer" : 0,
            "byteLength" : 28800,
            "byteOffset" : 34560
        },
        {
            "buffer" : 0,
            "byteLength" : 28800,
            "byteOffset" : 63360
        },
        {
            "buffer" : 0,
            "byteLength" : 28800,
            "byteOffset" : 92160
        }
    ],
    "buffers" : [
        {
            "byteLength" : 120960,
            "uri" : "data:application/octet-stream;base64,"
        }
    ]
}
