{
    "asset" : {
        "generator" : "Khronos glTF Blender I/O v1.0.5",
        "version" : "2.0"
    },
    "scene" : 0,
    "scenes" : [
        {
            "name" : "Scene",
            "nodes" : [
                0,
                1
            ]
        }
    ],
    "nodes" : [
        {
            "mesh" : 0,
            "name" : "rampa_curveada"
        },
        {
            "mesh" : 1,
            "name" : "rampa_curveada-collision"
        }
    ],
    "materials" : [
        {
            "doubleSided" : true,
            "name" : "Material.001",
            "pbrMetallicRoughness" : {
                "baseColorFactor" : [
                    0.8000000715255737,
                    0.09303227812051773,
                    0.11398729681968689,
                    1
                ],
                "metallicFactor" : 0.5499999523162842,
                "roughnessFactor" : 0.4583333432674408
            }
        }
    ],
    "meshes" : [
        {
            "name" : "BezierCurve.001",
            "primitives" : [
                {
                    "attributes" : {
                        "POSITION" : 0,
                        "NORMAL" : 1
                    },
                    "indices" : 2,
                    "material" : 0
                }
            ]
        },
        {
            "name" : "BezierCurve",
            "primitives" : [
                {
                    "attributes" : {
                        "POSITION" : 3,
                        "NORMAL" : 4
                    },
                    "indices" : 5
                }
            ]
        }
    ],
    "accessors" : [
        {
            "bufferView" : 0,
            "componentType" : 5126,
            "count" : 3528,
            "max" : [
                78.01184844970703,
                38.15354919433594,
                39.0673828125
            ],
            "min" : [
                -75.82755279541016,
                -17.338224411010742,
                -14.164278984069824
            ],
            "type" : "VEC3"
        },
        {
            "bufferView" : 1,
            "componentType" : 5126,
            "count" : 3528,
            "type" : "VEC3"
        },
        {
            "bufferView" : 2,
            "componentType" : 5123,
            "count" : 20736,
            "type" : "SCALAR"
        },
        {
            "bufferView" : 3,
            "componentType" : 5126,
            "count" : 234,
            "max" : [
                78.03765869140625,
                38.5996208190918,
                39.60048294067383
            ],
            "min" : [
                -76.04451751708984,
                -17.96884536743164,
                -14.404069900512695
            ],
            "type" : "VEC3"
        },
        {
            "bufferView" : 4,
            "componentType" : 5126,
            "count" : 234,
            "type" : "VEC3"
        },
        {
            "bufferView" : 5,
            "componentType" : 5123,
            "count" : 1296,
            "type" : "SCALAR"
        }
    ],
    "bufferViews" : [
        {
            "buffer" : 0,
            "byteLength" : 42336,
            "byteOffset" : 0
        },
        {
            "buffer" : 0,
            "byteLength" : 42336,
            "byteOffset" : 42336
        },
        {
            "buffer" : 0,
            "byteLength" : 41472,
            "byteOffset" : 84672
        },
        {
            "buffer" : 0,
            "byteLength" : 2808,
            "byteOffset" : 126144
        },
        {
            "buffer" : 0,
            "byteLength" : 2808,
            "byteOffset" : 128952
        },
        {
            "buffer" : 0,
            "byteLength" : 2592,
            "byteOffset" : 131760
        }
    ],
    "buffers" : [
        {
            "byteLength" : 134352,
            "uri" : "data:application/octet-stream;base64,"
        }
    ]
}
