{
    "asset" : {
        "generator" : "Khronos glTF Blender I/O v1.0.5",
        "version" : "2.0"
    },
    "scene" : 0,
    "scenes" : [
        {
            "name" : "Scene",
            "nodes" : [
                0,
                1,
                2,
                3,
                4,
                5,
                6,
                7,
                8
            ]
        }
    ],
    "nodes" : [
        {
            "mesh" : 0,
            "name" : "Llantas_Traseras",
            "rotation" : [
                0.7071067690849304,
                0,
                0,
                0.7071067690849304
            ],
            "translation" : [
                1.295317530632019,
                -0.44383513927459717,
                0
            ]
        },
        {
            "mesh" : 1,
            "name" : "TsuruFinal"
        },
        {
            "mesh" : 2,
            "name" : "TsuruVentanas"
        },
        {
            "mesh" : 3,
            "name" : "Tubos"
        },
        {
            "mesh" : 4,
            "name" : "Acelerometro",
            "rotation" : [
                0,
                0,
                -0.5600571632385254,
                0.8284539580345154
            ],
            "translation" : [
                -0.5945595502853394,
                0.2863062620162964,
                0.32643651962280273
            ]
        },
        {
            "mesh" : 5,
            "name" : "volante",
            "rotation" : [
                0.3902783691883087,
                0.5896462798118591,
                -0.39027848839759827,
                0.5896463394165039
            ],
            "translation" : [
                -0.34921494126319885,
                0.253250390291214,
                0.32660162448883057
            ]
        },
        {
            "mesh" : 6,
            "name" : "PanelControl",
            "rotation" : [
                0.02308712713420391,
                0.02308712713420391,
                -0.7067297697067261,
                0.7067298293113708
            ],
            "translation" : [
                -0.2433432638645172,
                0.5521775484085083,
                0.45065921545028687
            ]
        },
        {
            "mesh" : 7,
            "name" : "Llanta_D_Izq",
            "rotation" : [
                0.7071067690849304,
                0,
                0,
                0.7071067690849304
            ],
            "translation" : [
                -1.4689154624938965,
                -0.4438351094722748,
                0.6954407095909119
            ]
        },
        {
            "mesh" : 8,
            "name" : "Llanta_D_Der",
            "rotation" : [
                0.7071067690849304,
                0,
                0,
                0.7071067690849304
            ],
            "translation" : [
                -1.4689157009124756,
                -0.44383513927459717,
                -0.6954406499862671
            ]
        }
    ],
    "materials" : [
        {
            "doubleSided" : true,
            "name" : "Exterior",
            "pbrMetallicRoughness" : {
                "baseColorFactor" : [
                    0.1375865638256073,
                    0.1375865638256073,
                    0.1375865638256073,
                    1
                ],
                "metallicFactor" : 0,
                "roughnessFactor" : 0.4000000059604645
            }
        },
        {
            "doubleSided" : true,
            "name" : "Interior",
            "pbrMetallicRoughness" : {
                "baseColorFactor" : [
                    0.800000011920929,
                    0.800000011920929,
                    0.800000011920929,
                    1
                ],
                "metallicFactor" : 0,
                "roughnessFactor" : 0.5
            }
        },
        {
            "doubleSided" : true,
            "name" : "Llantas",
            "pbrMetallicRoughness" : {
                "baseColorFactor" : [
                    0.800000011920929,
                    0.800000011920929,
                    0.800000011920929,
                    1
                ],
                "metallicFactor" : 0,
                "roughnessFactor" : 0.5
            }
        }
    ],
    "meshes" : [
        {
            "name" : "Cylinder.002",
            "primitives" : [
                {
                    "attributes" : {
                        "POSITION" : 0,
                        "NORMAL" : 1,
                        "TEXCOORD_0" : 2
                    },
                    "indices" : 3,
                    "material" : 0
                }
            ]
        },
        {
            "name" : "Cube.002",
            "primitives" : [
                {
                    "attributes" : {
                        "POSITION" : 4,
                        "NORMAL" : 5,
                        "TEXCOORD_0" : 6
                    },
                    "indices" : 7,
                    "material" : 0
                },
                {
                    "attributes" : {
                        "POSITION" : 8,
                        "NORMAL" : 9,
                        "TEXCOORD_0" : 10
                    },
                    "indices" : 11,
                    "material" : 1
                }
            ]
        },
        {
            "name" : "Cube.003",
            "primitives" : [
                {
                    "attributes" : {
                        "POSITION" : 12,
                        "NORMAL" : 13,
                        "TEXCOORD_0" : 14
                    },
                    "indices" : 15,
                    "material" : 1
                }
            ]
        },
        {
            "name" : "BezierCurve.004",
            "primitives" : [
                {
                    "attributes" : {
                        "POSITION" : 16,
                        "NORMAL" : 17,
                        "TEXCOORD_0" : 18
                    },
                    "indices" : 19
                }
            ]
        },
        {
            "name" : "Cylinder.003",
            "primitives" : [
                {
                    "attributes" : {
                        "POSITION" : 20,
                        "NORMAL" : 21,
                        "TEXCOORD_0" : 22
                    },
                    "indices" : 23
                }
            ]
        },
        {
            "name" : "Cylinder.006",
            "primitives" : [
                {
                    "attributes" : {
                        "POSITION" : 24,
                        "NORMAL" : 25,
                        "TEXCOORD_0" : 26
                    },
                    "indices" : 27,
                    "material" : 2
                }
            ]
        },
        {
            "name" : "Plane",
            "primitives" : [
                {
                    "attributes" : {
                        "POSITION" : 28,
                        "NORMAL" : 29,
                        "TEXCOORD_0" : 30
                    },
                    "indices" : 31
                }
            ]
        },
        {
            "name" : "Cylinder.004",
            "primitives" : [
                {
                    "attributes" : {
                        "POSITION" : 32,
                        "NORMAL" : 33,
                        "TEXCOORD_0" : 34
                    },
                    "indices" : 35,
                    "material" : 0
                }
            ]
        },
        {
            "name" : "Cylinder.005",
            "primitives" : [
                {
                    "attributes" : {
                        "POSITION" : 36,
                        "NORMAL" : 37,
                        "TEXCOORD_0" : 38
                    },
                    "indices" : 39,
                    "material" : 0
                }
            ]
        }
    ],
    "accessors" : [
        {
            "bufferView" : 0,
            "componentType" : 5126,
            "count" : 1056,
            "max" : [
                0.3571361005306244,
                0.8458817005157471,
                0.35713598132133484
            ],
            "min" : [
                -0.3571361005306244,
                -0.845881998538971,
                -0.3571360409259796
            ],
            "type" : "VEC3"
        },
        {
            "bufferView" : 1,
            "componentType" : 5126,
            "count" : 1056,
            "type" : "VEC3"
        },
        {
            "bufferView" : 2,
            "componentType" : 5126,
            "count" : 1056,
            "type" : "VEC2"
        },
        {
            "bufferView" : 3,
            "componentType" : 5123,
            "count" : 1704,
            "type" : "SCALAR"
        },
        {
            "bufferView" : 4,
            "componentType" : 5126,
            "count" : 3352,
            "max" : [
                2.5121779441833496,
                0.7517257928848267,
                0.9641540050506592
            ],
            "min" : [
                -2.4711854457855225,
                -0.5490765571594238,
                -0.9641540050506592
            ],
            "type" : "VEC3"
        },
        {
            "bufferView" : 5,
            "componentType" : 5126,
            "count" : 3352,
            "type" : "VEC3"
        },
        {
            "bufferView" : 6,
            "componentType" : 5126,
            "count" : 3352,
            "type" : "VEC2"
        },
        {
            "bufferView" : 7,
            "componentType" : 5123,
            "count" : 5286,
            "type" : "SCALAR"
        },
        {
            "bufferView" : 8,
            "componentType" : 5126,
            "count" : 891,
            "max" : [
                1.5832393169403076,
                0.6521361470222473,
                0.806330144405365
            ],
            "min" : [
                -0.8916223049163818,
                -0.4237123429775238,
                -0.806330144405365
            ],
            "type" : "VEC3"
        },
        {
            "bufferView" : 9,
            "componentType" : 5126,
            "count" : 891,
            "type" : "VEC3"
        },
        {
            "bufferView" : 10,
            "componentType" : 5126,
            "count" : 891,
            "type" : "VEC2"
        },
        {
            "bufferView" : 11,
            "componentType" : 5123,
            "count" : 1434,
            "type" : "SCALAR"
        },
        {
            "bufferView" : 12,
            "componentType" : 5126,
            "count" : 130,
            "max" : [
                1.5832393169403076,
                0.6521361470222473,
                0.8049502968788147
            ],
            "min" : [
                -0.8916223049163818,
                0.2214357852935791,
                -0.8049502968788147
            ],
            "type" : "VEC3"
        },
        {
            "bufferView" : 13,
            "componentType" : 5126,
            "count" : 130,
            "type" : "VEC3"
        },
        {
            "bufferView" : 14,
            "componentType" : 5126,
            "count" : 130,
            "type" : "VEC2"
        },
        {
            "bufferView" : 15,
            "componentType" : 5123,
            "count" : 198,
            "type" : "SCALAR"
        },
        {
            "bufferView" : 16,
            "componentType" : 5126,
            "count" : 1456,
            "max" : [
                1.3850148916244507,
                0.6219655275344849,
                0.7919179797172546
            ],
            "min" : [
                -0.7453188896179199,
                -0.48157957196235657,
                -0.7919179797172546
            ],
            "type" : "VEC3"
        },
        {
            "bufferView" : 17,
            "componentType" : 5126,
            "count" : 1456,
            "type" : "VEC3"
        },
        {
            "bufferView" : 18,
            "componentType" : 5126,
            "count" : 1456,
            "type" : "VEC2"
        },
        {
            "bufferView" : 19,
            "componentType" : 5123,
            "count" : 2196,
            "type" : "SCALAR"
        },
        {
            "bufferView" : 20,
            "componentType" : 5126,
            "count" : 164,
            "max" : [
                0.037414126098155975,
                0.01330842450261116,
                0.03933953866362572
            ],
            "min" : [
                -0.03741412237286568,
                -0.011746020056307316,
                -0.03933953866362572
            ],
            "type" : "VEC3"
        },
        {
            "bufferView" : 21,
            "componentType" : 5126,
            "count" : 164,
            "type" : "VEC3"
        },
        {
            "bufferView" : 22,
            "componentType" : 5126,
            "count" : 164,
            "type" : "VEC2"
        },
        {
            "bufferView" : 23,
            "componentType" : 5123,
            "count" : 288,
            "type" : "SCALAR"
        },
        {
            "bufferView" : 24,
            "componentType" : 5126,
            "count" : 504,
            "max" : [
                0.16897955536842346,
                0.026830505579710007,
                0.17767561972141266
            ],
            "min" : [
                -0.16897954046726227,
                -0.026830540969967842,
                -0.17767561972141266
            ],
            "type" : "VEC3"
        },
        {
            "bufferView" : 25,
            "componentType" : 5126,
            "count" : 504,
            "type" : "VEC3"
        },
        {
            "bufferView" : 26,
            "componentType" : 5126,
            "count" : 504,
            "type" : "VEC2"
        },
        {
            "bufferView" : 27,
            "componentType" : 5123,
            "count" : 756,
            "type" : "SCALAR"
        },
        {
            "bufferView" : 28,
            "componentType" : 5126,
            "count" : 856,
            "max" : [
                0.03750000149011612,
                0.010774170979857445,
                0.07500000298023224
            ],
            "min" : [
                -0.03750000149011612,
                0,
                -0.07500000298023224
            ],
            "type" : "VEC3"
        },
        {
            "bufferView" : 29,
            "componentType" : 5126,
            "count" : 856,
            "type" : "VEC3"
        },
        {
            "bufferView" : 30,
            "componentType" : 5126,
            "count" : 856,
            "type" : "VEC2"
        },
        {
            "bufferView" : 31,
            "componentType" : 5123,
            "count" : 1284,
            "type" : "SCALAR"
        },
        {
            "bufferView" : 32,
            "componentType" : 5126,
            "count" : 528,
            "max" : [
                0.3571360111236572,
                0.1504412144422531,
                0.35713598132133484
            ],
            "min" : [
                -0.3571360111236572,
                -0.13142694532871246,
                -0.35713598132133484
            ],
            "type" : "VEC3"
        },
        {
            "bufferView" : 33,
            "componentType" : 5126,
            "count" : 528,
            "type" : "VEC3"
        },
        {
            "bufferView" : 34,
            "componentType" : 5126,
            "count" : 528,
            "type" : "VEC2"
        },
        {
            "bufferView" : 35,
            "componentType" : 5123,
            "count" : 852,
            "type" : "SCALAR"
        },
        {
            "bufferView" : 36,
            "componentType" : 5126,
            "count" : 532,
            "max" : [
                0.3571360111236572,
                0.13142693042755127,
                0.35713595151901245
            ],
            "min" : [
                -0.3571360111236572,
                -0.15044116973876953,
                -0.35713598132133484
            ],
            "type" : "VEC3"
        },
        {
            "bufferView" : 37,
            "componentType" : 5126,
            "count" : 532,
            "type" : "VEC3"
        },
        {
            "bufferView" : 38,
            "componentType" : 5126,
            "count" : 532,
            "type" : "VEC2"
        },
        {
            "bufferView" : 39,
            "componentType" : 5123,
            "count" : 852,
            "type" : "SCALAR"
        }
    ],
    "bufferViews" : [
        {
            "buffer" : 0,
            "byteLength" : 12672,
            "byteOffset" : 0
        },
        {
            "buffer" : 0,
            "byteLength" : 12672,
            "byteOffset" : 12672
        },
        {
            "buffer" : 0,
            "byteLength" : 8448,
            "byteOffset" : 25344
        },
        {
            "buffer" : 0,
            "byteLength" : 3408,
            "byteOffset" : 33792
        },
        {
            "buffer" : 0,
            "byteLength" : 40224,
            "byteOffset" : 37200
        },
        {
            "buffer" : 0,
            "byteLength" : 40224,
            "byteOffset" : 77424
        },
        {
            "buffer" : 0,
            "byteLength" : 26816,
            "byteOffset" : 117648
        },
        {
            "buffer" : 0,
            "byteLength" : 10572,
            "byteOffset" : 144464
        },
        {
            "buffer" : 0,
            "byteLength" : 10692,
            "byteOffset" : 155036
        },
        {
            "buffer" : 0,
            "byteLength" : 10692,
            "byteOffset" : 165728
        },
        {
            "buffer" : 0,
            "byteLength" : 7128,
            "byteOffset" : 176420
        },
        {
            "buffer" : 0,
            "byteLength" : 2868,
            "byteOffset" : 183548
        },
        {
            "buffer" : 0,
            "byteLength" : 1560,
            "byteOffset" : 186416
        },
        {
            "buffer" : 0,
            "byteLength" : 1560,
            "byteOffset" : 187976
        },
        {
            "buffer" : 0,
            "byteLength" : 1040,
            "byteOffset" : 189536
        },
        {
            "buffer" : 0,
            "byteLength" : 396,
            "byteOffset" : 190576
        },
        {
            "buffer" : 0,
            "byteLength" : 17472,
            "byteOffset" : 190972
        },
        {
            "buffer" : 0,
            "byteLength" : 17472,
            "byteOffset" : 208444
        },
        {
            "buffer" : 0,
            "byteLength" : 11648,
            "byteOffset" : 225916
        },
        {
            "buffer" : 0,
            "byteLength" : 4392,
            "byteOffset" : 237564
        },
        {
            "buffer" : 0,
            "byteLength" : 1968,
            "byteOffset" : 241956
        },
        {
            "buffer" : 0,
            "byteLength" : 1968,
            "byteOffset" : 243924
        },
        {
            "buffer" : 0,
            "byteLength" : 1312,
            "byteOffset" : 245892
        },
        {
            "buffer" : 0,
            "byteLength" : 576,
            "byteOffset" : 247204
        },
        {
            "buffer" : 0,
            "byteLength" : 6048,
            "byteOffset" : 247780
        },
        {
            "buffer" : 0,
            "byteLength" : 6048,
            "byteOffset" : 253828
        },
        {
            "buffer" : 0,
            "byteLength" : 4032,
            "byteOffset" : 259876
        },
        {
            "buffer" : 0,
            "byteLength" : 1512,
            "byteOffset" : 263908
        },
        {
            "buffer" : 0,
            "byteLength" : 10272,
            "byteOffset" : 265420
        },
        {
            "buffer" : 0,
            "byteLength" : 10272,
            "byteOffset" : 275692
        },
        {
            "buffer" : 0,
            "byteLength" : 6848,
            "byteOffset" : 285964
        },
        {
            "buffer" : 0,
            "byteLength" : 2568,
            "byteOffset" : 292812
        },
        {
            "buffer" : 0,
            "byteLength" : 6336,
            "byteOffset" : 295380
        },
        {
            "buffer" : 0,
            "byteLength" : 6336,
            "byteOffset" : 301716
        },
        {
            "buffer" : 0,
            "byteLength" : 4224,
            "byteOffset" : 308052
        },
        {
            "buffer" : 0,
            "byteLength" : 1704,
            "byteOffset" : 312276
        },
        {
            "buffer" : 0,
            "byteLength" : 6384,
            "byteOffset" : 313980
        },
        {
            "buffer" : 0,
            "byteLength" : 6384,
            "byteOffset" : 320364
        },
        {
            "buffer" : 0,
            "byteLength" : 4256,
            "byteOffset" : 326748
        },
        {
            "buffer" : 0,
            "byteLength" : 1704,
            "byteOffset" : 331004
        }
    ],
    "buffers" : [
        {
            "byteLength" : 332708,
            "uri" : "data:application/octet-stream;base64,"
        }
    ]
}
